<?xml version="1.0" encoding="UTF-8"?> <svg xmlns="http://www.w3.org/2000/svg" width="259" height="248" viewBox="0 0 259 248" fill="none"> <path d="M9.8608 65.0982L30.7447 78.3721L34.066 73.4354L13.1833 60.1615L18.4147 52.3868L13.7987 49.4526L0 69.9559L4.61727 72.8902L9.8608 65.0982Z" fill="#2B2B2B"></path> <path d="M55.9142 15.0816L50.8632 18.3883L57.793 28.3867L47.1051 35.3831L40.1753 25.3834L35.1243 28.6901L52.1465 53.2508L57.1968 49.9441L50.095 39.6982L60.7842 32.7018L67.8847 42.949L72.9357 39.6423L55.9142 15.0816Z" fill="#2B2B2B"></path> <path d="M111.583 29.0521L110.569 23.9635L96.8438 26.551L95.4185 19.4121L108.301 16.985L107.312 12.0332L94.4315 14.4615L93.0728 7.65524L106.698 5.08702L105.684 -0.000293779L86.1795 3.67453L91.9802 32.7455L111.583 29.0521Z" fill="#2B2B2B"></path> <path d="M156.308 33.8748L156.308 33.8754C157.188 34.5854 158.185 35.2848 159.272 35.9544C160.366 36.6283 161.503 37.2064 162.653 37.6746C164.798 38.5487 166.743 38.9907 168.443 38.9907C168.59 38.9907 168.736 38.987 168.878 38.9807C170.716 38.8974 172.292 38.3727 173.563 37.4216C174.815 36.4847 175.795 35.2108 176.473 33.6361C177.11 32.1627 177.362 30.7912 177.224 29.5597C177.084 28.3181 176.496 27.0431 175.474 25.7692C174.495 24.5526 173.04 23.1476 171.149 21.5915C169.978 20.6334 169.044 19.7842 168.373 19.068C167.745 18.3985 167.346 17.773 167.188 17.2067C167.038 16.6745 167.093 16.12 167.356 15.5113C167.644 14.8418 168.053 14.3873 168.605 14.1231C169.191 13.8427 169.872 13.7227 170.634 13.7743C171.436 13.8253 172.275 14.0267 173.124 14.3724C173.795 14.6459 174.5 15.0333 175.22 15.5238C175.948 16.0199 176.666 16.6061 177.355 17.267C178.039 17.9216 178.65 18.6453 179.172 19.418L179.763 20.2903L182.59 15.1738L182.332 14.8536C181.966 14.4029 181.51 13.9211 180.975 13.4212C180.442 12.922 179.821 12.4166 179.129 11.9205C178.446 11.4299 177.704 10.9525 176.921 10.4999C176.136 10.0479 175.317 9.64694 174.487 9.30874C172.393 8.45578 170.47 8.07034 168.767 8.15675C167.034 8.24689 165.521 8.75419 164.268 9.66373C163.029 10.5658 162.069 11.7918 161.414 13.3081C160.736 14.8828 160.515 16.3394 160.759 17.6357C160.999 18.9182 161.625 20.1684 162.62 21.3502C163.571 22.4817 164.812 23.6673 166.309 24.8771C167.461 25.7966 168.436 26.6607 169.207 27.4441C169.933 28.1808 170.423 28.8932 170.663 29.5615C170.883 30.177 170.843 30.818 170.539 31.5205C170.214 32.2733 169.778 32.7869 169.205 33.0896C168.617 33.3998 167.918 33.531 167.13 33.4726C166.285 33.4123 165.367 33.1829 164.403 32.7912C163.504 32.4244 162.627 31.9588 161.798 31.4086C160.966 30.8565 160.16 30.2261 159.403 29.5348C158.652 28.8472 157.947 28.0919 157.306 27.2905L156.696 26.5264L153.941 31.6286L154.224 31.9488C154.721 32.5108 155.422 33.1586 156.308 33.8748Z" fill="#2B2B2B"></path> <path d="M203.472 58.8799C205.009 58.1258 206.445 57.4189 207.781 56.7605L216.471 52.5057C217.459 52.0189 218.53 51.4942 219.682 50.9309C220.836 50.367 222.001 49.7963 223.179 49.2181L227.396 47.1429L222.747 42.7065L222.335 42.9166C220.404 43.9001 218.416 44.9141 216.377 45.9592C214.335 47.0036 212.369 48.0083 210.475 48.9719L200.967 53.8361L208.838 38.7829C209.921 36.7189 210.936 34.7724 211.883 32.9433L212.094 32.538L207.326 27.9872L205.038 32.6064C204.535 33.6185 204.041 34.6151 203.558 35.5949C203.045 36.6331 202.562 37.603 202.114 38.5063L197.817 47.2231C197.173 48.5231 196.475 49.9387 195.721 51.4705C194.968 52.9993 194.257 54.4373 193.584 55.7826L193.383 56.1849L198.667 61.2287L199.076 61.0297C200.47 60.3508 201.935 59.6353 203.472 58.8799Z" fill="#2B2B2B"></path> <path d="M223.379 100.821L228.268 98.7502L222.682 86.2943L229.54 83.3898L234.782 95.0798L239.54 93.0656L234.298 81.375L240.837 78.6054L246.383 90.9699L251.27 88.9004L243.334 71.2006L215.401 83.0305L223.379 100.821Z" fill="#2B2B2B"></path> <path d="M256.754 123.717C255.344 121.538 253.41 119.846 251.005 118.691C248.614 117.54 245.862 116.994 242.843 117.07C240.579 117.126 238.475 117.533 236.587 118.279C234.689 119.03 233.031 120.102 231.66 121.462C230.286 122.824 229.221 124.483 228.496 126.394C227.777 128.292 227.442 130.439 227.502 132.777C227.523 133.576 227.587 134.386 227.691 135.184C227.797 135.986 227.946 136.776 228.133 137.529C228.324 138.296 228.569 139.036 228.864 139.73C229.161 140.434 229.5 141.086 229.871 141.669L230.081 142L236.092 141.424L235.422 140.543C234.978 139.96 234.587 139.357 234.258 138.751C233.934 138.155 233.669 137.541 233.473 136.929C233.275 136.303 233.124 135.673 233.024 135.055C232.923 134.438 232.863 133.802 232.846 133.162C232.805 131.544 233.043 130.102 233.552 128.875C234.059 127.654 234.783 126.619 235.702 125.799C236.627 124.972 237.722 124.333 238.955 123.9C240.202 123.461 241.564 123.221 243.003 123.185C245.167 123.138 247.053 123.483 248.611 124.228C250.153 124.968 251.365 126.023 252.214 127.364C253.068 128.712 253.524 130.29 253.571 132.053C253.593 132.873 253.526 133.731 253.373 134.605C253.22 135.484 252.962 136.404 252.607 137.34C252.251 138.281 251.769 139.265 251.176 140.266L250.663 141.132L256.657 141.508L256.85 141.152C257.152 140.6 257.434 139.954 257.69 139.234C257.944 138.524 258.178 137.746 258.385 136.924C258.595 136.097 258.756 135.214 258.866 134.298C258.975 133.382 259.018 132.434 258.993 131.481C258.914 128.504 258.161 125.891 256.754 123.717Z" fill="#2B2B2B"></path> <path d="M222.563 165.677L234.347 170.309L229.516 181.919L217.73 177.286L215.448 182.773L243.695 193.875L245.977 188.39L234.478 183.869L239.31 172.26L250.81 176.779L253.092 171.294L224.847 160.189L222.563 165.677Z" fill="#2B2B2B"></path> <path d="M199.042 203.565L221.812 223.245L225.912 218.762L203.144 199.083L199.042 203.565Z" fill="#2B2B2B"></path> <path d="M45.2153 233.327L48.4611 235.716L63.6313 216.26L60.3862 213.87L45.2153 233.327Z" fill="#2B2B2B"></path> <path d="M7.59996 146.879C5.37704 131.208 6.54831 115.555 11.0811 100.354L11.2328 99.8483L10.8336 99.4884C10.2374 98.9525 9.64633 98.3525 9.02711 97.6556L7.98122 96.4757L7.51872 97.9671C2.52659 114.08 1.19668 130.718 3.56608 147.42C7.18225 172.915 18.9532 195.912 37.6052 213.928L38.5065 214.798L41.0256 211.568L40.3405 210.902C22.3876 193.454 11.0658 171.316 7.59996 146.879Z" fill="#2B2B2B"></path> <path d="M188.405 224.25L187.937 224.016L187.506 224.306C172.785 234.113 155.673 240.548 138.018 242.914C115.882 245.879 93.5015 242.583 73.2976 233.38L72.4832 233.009L69.9283 236.287L71.1661 236.853C82.1157 241.892 93.7542 245.26 105.758 246.863C111.142 247.581 116.575 247.941 122.022 247.941C127.539 247.941 133.071 247.572 138.576 246.834C157.314 244.323 175.391 237.44 190.853 226.928L191.999 226.147L190.776 225.481C190.051 225.088 189.276 224.685 188.405 224.25Z" fill="#2B2B2B"></path> </svg> 